<svg width="291" height="88" viewBox="0 0 291 88" fill="none" xmlns="http://www.w3.org/2000/svg">
<path d="M40.1484 61V36.34H33.5184V29.14H40.1484V26.95C40.1484 24.83 40.4284 23.02 40.9884 21.52C41.5684 20 42.3484 18.74 43.3284 17.74C44.3084 16.72 45.4084 15.92 46.6284 15.34C47.8684 14.74 49.1384 14.32 50.4384 14.08C51.7584 13.82 53.0384 13.69 54.2784 13.69C55.5984 13.69 56.5784 13.77 57.2184 13.93C57.8784 14.07 58.3184 14.19 58.5384 14.29V21.52C58.2984 21.44 57.8684 21.35 57.2484 21.25C56.6484 21.15 55.9984 21.1 55.2984 21.1C54.1384 21.1 53.1784 21.25 52.4184 21.55C51.6584 21.85 51.0584 22.29 50.6184 22.87C50.1784 23.43 49.8684 24.1 49.6884 24.88C49.5084 25.64 49.4184 26.47 49.4184 27.37V29.14H57.9684V36.34H49.4184V61H40.1484ZM62.7042 61V29.14H72.0342V40.12L70.1142 38.92C70.3342 37.42 70.7342 36.04 71.3142 34.78C71.8942 33.52 72.6442 32.43 73.5642 31.51C74.4842 30.57 75.5742 29.84 76.8342 29.32C78.1142 28.8 79.5742 28.54 81.2142 28.54C82.4942 28.54 83.4942 28.64 84.2142 28.84C84.9542 29.02 85.4142 29.16 85.5942 29.26L84.0642 37.6C83.8842 37.5 83.4842 37.34 82.8642 37.12C82.2442 36.9 81.4442 36.79 80.4642 36.79C78.8642 36.79 77.5242 37.06 76.4442 37.6C75.3642 38.14 74.4942 38.86 73.8342 39.76C73.1942 40.64 72.7342 41.62 72.4542 42.7C72.1742 43.78 72.0342 44.87 72.0342 45.97V61H62.7042ZM100.516 61.66C98.1959 61.66 96.1259 61.29 94.3059 60.55C92.5059 59.81 91.0959 58.74 90.0759 57.34C89.0559 55.94 88.5459 54.24 88.5459 52.24C88.5459 49.98 89.1659 48.14 90.4059 46.72C91.6459 45.3 93.2859 44.22 95.3259 43.48C97.3859 42.72 99.6159 42.22 102.016 41.98C105.516 41.64 107.926 41.33 109.246 41.05C110.586 40.77 111.256 40.28 111.256 39.58C111.256 39.56 111.256 39.54 111.256 39.52C111.256 38.34 110.686 37.41 109.546 36.73C108.426 36.05 106.856 35.71 104.836 35.71C102.696 35.71 101.056 36.1 99.9159 36.88C98.7959 37.64 98.2359 38.81 98.2359 40.39H89.0859C89.0859 37.83 89.7759 35.67 91.1559 33.91C92.5559 32.15 94.4459 30.82 96.8259 29.92C99.2059 29 101.896 28.54 104.896 28.54C107.696 28.54 110.286 28.97 112.666 29.83C115.046 30.67 116.956 31.94 118.396 33.64C119.856 35.34 120.586 37.5 120.586 40.12C120.586 40.54 120.586 40.96 120.586 41.38C120.586 41.78 120.586 42.19 120.586 42.61V53.89C120.586 54.71 120.606 55.5 120.646 56.26C120.706 57 120.826 57.68 121.006 58.3C121.206 59 121.456 59.58 121.756 60.04C122.056 60.5 122.306 60.82 122.506 61H113.356C113.216 60.86 112.996 60.57 112.696 60.13C112.416 59.69 112.176 59.18 111.976 58.6C111.736 57.9 111.556 57.2 111.436 56.5C111.336 55.78 111.286 54.94 111.286 53.98L113.206 55.3C112.646 56.62 111.736 57.76 110.476 58.72C109.236 59.66 107.756 60.39 106.036 60.91C104.336 61.41 102.496 61.66 100.516 61.66ZM103.006 54.7C104.466 54.7 105.826 54.44 107.086 53.92C108.366 53.38 109.406 52.54 110.206 51.4C111.006 50.26 111.406 48.77 111.406 46.93V43.72L113.716 45.97C112.396 46.45 110.866 46.85 109.126 47.17C107.406 47.47 105.686 47.71 103.966 47.89C101.926 48.09 100.396 48.44 99.3759 48.94C98.3759 49.42 97.8759 50.24 97.8759 51.4C97.8759 52.5 98.3059 53.33 99.1659 53.89C100.026 54.43 101.306 54.7 103.006 54.7ZM147.282 61V48.67C147.282 47.49 147.282 46.47 147.282 45.61C147.282 44.73 147.282 44 147.282 43.42C147.282 42.6 147.232 41.79 147.132 40.99C147.052 40.19 146.852 39.45 146.532 38.77C146.232 38.07 145.762 37.52 145.122 37.12C144.482 36.7 143.612 36.49 142.512 36.49C141.492 36.49 140.612 36.71 139.872 37.15C139.132 37.57 138.522 38.16 138.042 38.92C137.582 39.66 137.242 40.52 137.022 41.5C136.802 42.46 136.692 43.47 136.692 44.53L134.142 42.43C134.142 39.73 134.632 37.34 135.612 35.26C136.592 33.16 137.982 31.52 139.782 30.34C141.602 29.14 143.752 28.54 146.232 28.54C148.892 28.54 150.962 29.11 152.442 30.25C153.942 31.37 154.992 32.87 155.592 34.75C156.212 36.61 156.522 38.67 156.522 40.93C156.522 41.79 156.522 42.95 156.522 44.41C156.522 45.87 156.522 47.62 156.522 49.66V61H147.282ZM127.392 61V29.14H136.692V61H127.392ZM167.082 61V48.7C167.082 47.48 167.082 46.43 167.082 45.55C167.082 44.67 167.082 43.94 167.082 43.36C167.082 42.48 167.032 41.64 166.932 40.84C166.832 40.02 166.622 39.28 166.302 38.62C165.982 37.96 165.502 37.44 164.862 37.06C164.222 36.68 163.352 36.49 162.252 36.49C161.232 36.49 160.352 36.71 159.612 37.15C158.892 37.57 158.302 38.15 157.842 38.89C157.382 39.63 157.042 40.47 156.822 41.41C156.622 42.35 156.522 43.33 156.522 44.35L153.972 42.28C153.972 39.62 154.452 37.26 155.412 35.2C156.392 33.14 157.772 31.52 159.552 30.34C161.352 29.14 163.502 28.54 166.002 28.54C168.602 28.54 170.652 29.09 172.152 30.19C173.672 31.29 174.752 32.76 175.392 34.6C176.052 36.42 176.382 38.46 176.382 40.72C176.382 41.62 176.382 42.78 176.382 44.2C176.382 45.62 176.382 47.35 176.382 49.39V61H167.082ZM186.919 47.86V41.71H208.039L207.139 43.27C207.139 43.11 207.139 42.96 207.139 42.82C207.139 42.66 207.139 42.51 207.139 42.37C207.139 41.23 206.869 40.14 206.329 39.1C205.789 38.04 204.949 37.18 203.809 36.52C202.689 35.84 201.249 35.5 199.489 35.5C197.729 35.5 196.209 35.88 194.929 36.64C193.669 37.38 192.699 38.45 192.019 39.85C191.359 41.25 191.029 42.94 191.029 44.92C191.029 46.96 191.349 48.71 191.989 50.17C192.649 51.61 193.619 52.72 194.899 53.5C196.199 54.28 197.809 54.67 199.729 54.67C200.969 54.67 202.039 54.56 202.939 54.34C203.839 54.1 204.569 53.8 205.129 53.44C205.709 53.08 206.149 52.68 206.449 52.24C206.749 51.8 206.929 51.37 206.989 50.95H216.169C216.049 52.29 215.589 53.61 214.789 54.91C213.989 56.19 212.879 57.35 211.459 58.39C210.039 59.41 208.309 60.22 206.269 60.82C204.249 61.42 201.939 61.72 199.339 61.72C195.819 61.72 192.749 61.02 190.129 59.62C187.509 58.2 185.479 56.25 184.039 53.77C182.599 51.27 181.879 48.39 181.879 45.13C181.879 41.83 182.609 38.94 184.069 36.46C185.549 33.96 187.599 32.02 190.219 30.64C192.859 29.24 195.909 28.54 199.369 28.54C202.909 28.54 205.969 29.25 208.549 30.67C211.129 32.07 213.119 34.04 214.519 36.58C215.919 39.1 216.619 42.04 216.619 45.4C216.619 45.9 216.609 46.38 216.589 46.84C216.569 47.3 216.539 47.64 216.499 47.86H186.919ZM235.751 61.72C233.091 61.72 230.641 61.09 228.401 59.83C226.161 58.55 224.361 56.66 223.001 54.16C221.641 51.66 220.961 48.58 220.961 44.92C220.961 41.42 221.651 38.45 223.031 36.01C224.431 33.57 226.251 31.72 228.491 30.46C230.751 29.18 233.171 28.54 235.751 28.54C238.271 28.54 240.571 29.18 242.651 30.46C244.751 31.74 246.431 33.49 247.691 35.71C248.951 37.91 249.581 40.45 249.581 43.33C249.581 43.43 249.581 43.53 249.581 43.63C249.581 43.71 249.581 43.8 249.581 43.9L245.561 43.96C245.561 43.9 245.561 43.84 245.561 43.78C245.561 43.7 245.561 43.63 245.561 43.57C245.561 42.07 245.201 40.78 244.481 39.7C243.761 38.62 242.831 37.79 241.691 37.21C240.551 36.61 239.361 36.31 238.121 36.31C236.061 36.31 234.281 37 232.781 38.38C231.281 39.74 230.531 41.92 230.531 44.92C230.531 47.92 231.281 50.13 232.781 51.55C234.301 52.95 236.081 53.65 238.121 53.65C239.401 53.65 240.611 53.35 241.751 52.75C242.891 52.13 243.811 51.26 244.511 50.14C245.211 49.02 245.561 47.7 245.561 46.18L249.581 46.39C249.581 49.25 248.961 51.84 247.721 54.16C246.501 56.46 244.841 58.3 242.741 59.68C240.661 61.04 238.331 61.72 235.751 61.72ZM245.561 61V14.11H254.891V61H245.561Z" fill="#F4F1EE"/>
<rect x="48" y="14" width="223" height="8" rx="4" fill="#F4F1EE"/>
<rect x="253" y="61" width="47" height="18" transform="rotate(-90 253 61)" fill="#F4F1EE"/>
<rect x="51" y="13" width="7" height="1" fill="#1A120B"/>
</svg>
